<?xml version="1.0" encoding="UTF-8" standalone="no"?>
<!-- Created with Inkscape (http://www.inkscape.org/) -->

<svg
   width="297mm"
   height="210mm"
   viewBox="0 0 297 210"
   version="1.1"
   id="svg1"
   xml:space="preserve"
   inkscape:version="1.3.2 (091e20e, 2023-11-25, custom)"
   sodipodi:docname="tło gauss.svg"
   inkscape:export-filename="tło gauss.svg"
   inkscape:export-xdpi="96"
   inkscape:export-ydpi="96"
   xmlns:inkscape="http://www.inkscape.org/namespaces/inkscape"
   xmlns:sodipodi="http://sodipodi.sourceforge.net/DTD/sodipodi-0.dtd"
   xmlns:xlink="http://www.w3.org/1999/xlink"
   xmlns="http://www.w3.org/2000/svg"
   xmlns:svg="http://www.w3.org/2000/svg"><sodipodi:namedview
     id="namedview1"
     pagecolor="#141010"
     bordercolor="#000000"
     borderopacity="0.24705882"
     inkscape:showpageshadow="2"
     inkscape:pageopacity="0.0"
     inkscape:pagecheckerboard="0"
     inkscape:deskcolor="#d1d1d1"
     inkscape:document-units="mm"
     inkscape:zoom="0.70710678"
     inkscape:cx="125.86501"
     inkscape:cy="392.44426"
     inkscape:window-width="2560"
     inkscape:window-height="1009"
     inkscape:window-x="-8"
     inkscape:window-y="-8"
     inkscape:window-maximized="1"
     inkscape:current-layer="layer1"
     showgrid="false"
     inkscape:export-bgcolor="#000000f3"><inkscape:grid
       id="grid5"
       units="mm"
       originx="0"
       originy="0"
       spacingx="1"
       spacingy="0.99999998"
       empcolor="#0099e5"
       empopacity="0.30196078"
       color="#0099e5"
       opacity="0.14901961"
       empspacing="5"
       dotted="false"
       gridanglex="30"
       gridanglez="30"
       visible="false"
       enabled="false" /><inkscape:grid
       type="axonomgrid"
       id="grid6"
       units="mm"
       originx="0"
       originy="0"
       spacingx="0"
       spacingy="0.99999998"
       empcolor="#0099e5"
       empopacity="0.30196078"
       color="#0099e5"
       opacity="0.14901961"
       empspacing="5"
       dotted="false"
       gridanglex="30"
       gridanglez="30"
       visible="false" /></sodipodi:namedview><defs
     id="defs1"><color-profile
       name="Agfa-:-Swop-Standard"
       xlink:href="file:///WINDOWS/system32/spool/drivers/color/RSWOP.icm"
       id="color-profile1" /></defs><g
     inkscape:label="Warstwa 1"
     inkscape:groupmode="layer"
     id="layer1"><rect
       style="opacity:1;fill:#141010;fill-opacity:1;fill-rule:nonzero;stroke:none;stroke-width:1.04985;stroke-dasharray:none;stroke-opacity:0;paint-order:normal"
       id="rect15"
       width="540.31201"
       height="361.45529"
       x="-128.71701"
       y="-115.99497" /><path
       style="opacity:0.677711;fill:#442a6b;fill-opacity:0.33725491;stroke:none;stroke-width:1.765;stroke-dasharray:none;stroke-opacity:1;paint-order:normal"
       d="M 0,0.56126599 C 107.95016,52.010648 99.905348,1.122532 137.69726,17.773423 c 37.79191,16.650892 9.72861,78.951416 59.12002,75.77091 49.3914,-3.180508 89.61547,-54.255714 87.55749,-9.72861 -2.05798,44.527097 -11.97366,89.428387 12.34787,75.209647 24.3215,-14.21874 21.70226,-99.531173 21.70226,-99.531173 0,0 -14.59291,-105.14383 -17.21215,-105.51801 -2.61924,-0.374176 -132.83295,5.612662 -132.83295,5.612662 l -128.717002,9.72861 -44.5271033,16.089625 z"
       id="path6" /><path
       style="opacity:0.677711;mix-blend-mode:normal;fill:#442a6b;fill-opacity:0.337255;fill-rule:nonzero;stroke:none;stroke-width:1.765;stroke-dasharray:none;stroke-opacity:1;paint-order:normal"
       d="m -25.4,-8.9958332 c 1.5875,0 89.693749,35.1895832 114.829166,25.6645832 C 114.56458,7.1437499 152.4,-5.0270833 162.45416,9.5249999 c 10.05417,14.5520831 1.5875,81.7562491 55.03334,70.9083321 53.44583,-10.847916 38.36458,-30.691666 55.82708,-29.633333 17.4625,1.058334 16.93333,67.468751 26.19375,53.710421 9.26042,-13.758338 9.78958,-103.4520867 9.78958,-103.4520867 L 288.925,-23.8125 191.29375,-33.072916 c 0,0 -120.385418,10.31875 -121.443751,10.583333 C 68.791666,-22.225 -25.4,-8.9958332 -25.4,-8.9958332 Z"
       id="path7" /><path
       style="opacity:0.677711;fill:#a70e3a;fill-opacity:0.639216;stroke:none;stroke-width:1.765;stroke-dasharray:none;stroke-opacity:0.678431;paint-order:normal"
       d="m -15.341271,30.682541 c 0,0 40.411152,16.463803 35.546847,33.301783 -4.864305,16.83798 -11.2253201,48.643056 -4.490128,54.629886 6.735192,5.98684 18.708867,27.68913 13.470385,36.2952 -5.238484,8.60608 -6.735193,32.17926 9.354433,34.42432 16.089625,2.24506 119.175484,-9.16734 126.284854,-1.30962 7.10937,7.85772 39.10153,18.1476 54.06862,8.79317 14.96709,-9.35444 78.95142,-4.49013 85.6866,15.34127 6.73521,19.83139 -50.88811,30.68254 -75.58381,29.93418 -24.69571,-0.74835 -73.71294,-5.23848 -109.63396,-3.36759 -35.921026,1.87089 -92.047625,-0.37418 -112.627378,-3.74178 -20.579753,-3.36759 -83.815722,-17.96051 -89.054204,-26.94076 -5.238483,-8.98026 -4.864307,-23.94735 -1.870888,-42.28204 2.993419,-18.33469 17.960512,-57.24913 23.94735,-71.093695 5.986836,-13.844561 16.463801,-35.172668 18.334688,-43.030393 1.870888,-7.857723 26.566591,-20.953931 26.566591,-20.953931 z"
       id="path9"
       sodipodi:nodetypes="cssssssssssssssc" /><path
       style="opacity:0.677711;fill:#a70e3a;fill-opacity:0.639216;stroke:none;stroke-width:1.765;stroke-dasharray:none;stroke-opacity:0.678431;paint-order:normal"
       d="m -23.947349,17.586335 c 2.993418,2.619241 37.978999,32.17925 36.108112,44.527102 -1.870886,12.347853 -10.2898763,44.340013 -5.0513936,52.571913 5.2384826,8.2319 12.1607636,34.05014 8.7931676,40.03698 -3.367596,5.98683 -8.7931676,34.98558 6.548103,39.84988 15.341271,4.86431 128.717,-8.79316 136.20055,3.92887 7.48354,12.72203 62.6747,7.67063 67.539,4.67721 4.86431,-2.99342 56.31369,-5.61266 74.27421,7.85773 17.9605,13.47038 6.36101,32.17925 -7.10938,32.55342 -13.47039,0.37418 -103.64711,-2.24506 -110.75648,-2.99341 -7.10937,-0.74836 -104.021299,0.37417 -104.021299,0.37417 L 20.205576,237.97678 -34.424315,227.49982 -50.139763,188.2112 c 0,0 3.741774,-44.90128 5.238482,-50.13977 1.496711,-5.23848 11.599498,-44.527097 11.599498,-44.527097 z"
       id="path10"
       sodipodi:nodetypes="csssssssssccccscc" /><path
       style="opacity:0.677711;fill:#a70e3a;fill-opacity:0.639216;fill-rule:nonzero;stroke:none;stroke-width:31.965;stroke-dasharray:none;stroke-opacity:0.678431;paint-order:normal"
       d="M -14.592916,-18.334689 343.12061,229.74488"
       id="path11" /></g></svg>
